<?xml version="1.0" encoding="UTF-8"?>
<svg xmlns="http://www.w3.org/2000/svg" viewBox="0 0 512 512" role="img" aria-labelledby="title desc">
    <title>Arg Driver - Moto y Mate</title>
    <desc>Logo del simulador de manejo para moto en Argentina con un sol, una moto y un mate.</desc>
    <defs>
        <linearGradient id="arFlag" x1="0" y1="0" x2="0" y2="1">
            <stop offset="0%" stop-color="#6ec5ff"/>
            <stop offset="50%" stop-color="#ffffff"/>
            <stop offset="100%" stop-color="#6ec5ff"/>
        </linearGradient>
        <radialGradient id="sunGrad" cx="50%" cy="50%" r="50%">
            <stop offset="0%" stop-color="#ffde59"/>
            <stop offset="100%" stop-color="#f5c21a"/>
        </radialGradient>
    </defs>

    <!-- Badge -->
    <circle cx="256" cy="256" r="240" fill="url(#arFlag)" stroke="#0b4a6f" stroke-width="12"/>

    <!-- Sun (inspired by Sol de Mayo, simplified) -->
    <g transform="translate(256 180)">
        <circle r="38" fill="url(#sunGrad)" stroke="#c08b00" stroke-width="6"/>
        <g stroke="#c08b00" stroke-width="6" stroke-linecap="round">
            <line x1="0" y1="-70" x2="0" y2="-48"/>
            <line x1="0" y1="70" x2="0" y2="48"/>
            <line x1="-70" y1="0" x2="-48" y2="0"/>
            <line x1="70" y1="0" x2="48" y2="0"/>
            <line x1="50" y1="50" x2="36" y2="36"/>
            <line x1="-50" y1="50" x2="-36" y2="36"/>
            <line x1="50" y1="-50" x2="36" y2="-36"/>
            <line x1="-50" y1="-50" x2="-36" y2="-36"/>
        </g>
    </g>

    <path transform="scale(.4) translate(330 550)" d="m276.62867,166.53801c-5.09164,.002-25.63728,2.14479-28.02556,23.12108-.309,.30899 0.30027,9.70885 0.30027,9.70885l4.6042,0 20.6188-2.70246 0.30028,20.91907-22.22026,16.71525 3.10282,12.41131 53.04841-38.83541 0.30027-18.81716c0,0-4.23873-22.42044-30.92823-22.42044 0-.0386-.37363-.10044-1.101-.10008z
m33.1302,50.84636c-2.68464-.0666-5.81118,.62944-9.50865,2.90265-.309-1e-5-53.74903,40.13659-53.74903,40.13659l-30.32765,0c-1e-5,1e-5-12.51141-1.54082-12.51141,12.7116-1e-5,0-1.13091,13.31213 11.01004,13.31213l43.94007,0c8.99638-6.68777 18.07032-13.17395 27.02464-19.91816l28.42594,23.02099c0,1e-5-43.33954,19.71801-43.33954,19.71801-7.93785,3.77049-9.83114,12.71141-6.00548,20.01827l37.63434,67.06114c0,0 8.21745,9.38034 17.61605,2.40219 0.2832-.2832 11.4819-6.70653 5.40495-18.21659-.2961,0-23.92181-45.24125-23.92181-45.24125-1.98444-3.37362-2.09277-7.86528 2.70246-10.00914 0,0 57.3523-25.42321 57.3523-25.42321 4.36578-1.98449 7.81065-10.47041 0.90081-19.11745 0,10e-6-43.4396-59.15393-43.4396-59.15393 0,0-3.30218-4.05741-9.20843-4.20384z
m-116.60632,85.67816c-32.30291,0-58.35321,26.43779-58.35321,58.75357-1e-5,32.27717 26.0503,58.25312 58.35321,58.25312 32.3158,3e-5 58.75357-25.96308 58.75357-58.25312 0-32.30288-26.43778-58.75357-58.75357-58.75357z
m213.29452,0c-32.30291,0-58.35322,26.43779-58.35322,58.75357 0,32.27717 26.05028,58.25312 58.35322,58.25312 32.30294,3e-5 58.75358-25.96308 58.75358-58.25312 0-32.30288-26.45067-58.75357-58.75358-58.75357z
m-213.29452,17.31581c22.81418,0 41.43778,18.62358 41.43778,41.43776 1e-5,22.80132-18.62361,41.03741-41.43778,41.03741-22.80129,0-41.03742-18.24899-41.03742-41.03741-1e-5-22.80131 18.24899-41.43776 41.03742-41.43776z
m213.29452,0c22.80132,0 41.43779,18.62358 41.43779,41.43776 0,22.80132-18.6365,41.03741-41.43779,41.03741-22.80128,0-41.03744-18.24899-41.03744-41.03741 0-22.80131 18.249-41.43776 41.03744-41.43776z"/>

</svg>
